<mxfile host="app.diagrams.net" modified="2024-05-28T04:40:36.444Z" agent="Mozilla/5.0 (Windows NT 10.0; Win64; x64) AppleWebKit/537.36 (KHTML, like Gecko) Chrome/125.0.0.0 Safari/537.36 Edg/125.0.0.0" etag="9pwenHODuEpjyB0hEUzD" version="24.4.4" type="device">
  <diagram name="Page-1" id="rsy3yCjVIS8-YV8dBntP">
    <mxGraphModel dx="789" dy="367" grid="1" gridSize="10" guides="1" tooltips="1" connect="1" arrows="1" fold="1" page="1" pageScale="1" pageWidth="1169" pageHeight="827" math="0" shadow="0">
      <root>
        <mxCell id="0" />
        <mxCell id="1" parent="0" />
        <mxCell id="3aSIPS98a_9pSbhr0AX8-31" style="edgeStyle=orthogonalEdgeStyle;rounded=0;orthogonalLoop=1;jettySize=auto;html=1;entryX=0;entryY=0.5;entryDx=0;entryDy=0;" edge="1" parent="1" source="3aSIPS98a_9pSbhr0AX8-25" target="3aSIPS98a_9pSbhr0AX8-29">
          <mxGeometry relative="1" as="geometry" />
        </mxCell>
        <mxCell id="3aSIPS98a_9pSbhr0AX8-32" style="edgeStyle=orthogonalEdgeStyle;rounded=0;orthogonalLoop=1;jettySize=auto;html=1;entryX=0;entryY=0.5;entryDx=0;entryDy=0;" edge="1" parent="1" source="3aSIPS98a_9pSbhr0AX8-25" target="3aSIPS98a_9pSbhr0AX8-26">
          <mxGeometry relative="1" as="geometry" />
        </mxCell>
        <mxCell id="3aSIPS98a_9pSbhr0AX8-33" style="edgeStyle=orthogonalEdgeStyle;rounded=0;orthogonalLoop=1;jettySize=auto;html=1;entryX=0;entryY=0.5;entryDx=0;entryDy=0;" edge="1" parent="1" source="3aSIPS98a_9pSbhr0AX8-25" target="3aSIPS98a_9pSbhr0AX8-27">
          <mxGeometry relative="1" as="geometry" />
        </mxCell>
        <mxCell id="3aSIPS98a_9pSbhr0AX8-34" style="edgeStyle=orthogonalEdgeStyle;rounded=0;orthogonalLoop=1;jettySize=auto;html=1;entryX=0;entryY=0.5;entryDx=0;entryDy=0;" edge="1" parent="1" source="3aSIPS98a_9pSbhr0AX8-25" target="3aSIPS98a_9pSbhr0AX8-28">
          <mxGeometry relative="1" as="geometry" />
        </mxCell>
        <mxCell id="3aSIPS98a_9pSbhr0AX8-37" style="edgeStyle=orthogonalEdgeStyle;rounded=0;orthogonalLoop=1;jettySize=auto;html=1;entryX=0.5;entryY=1;entryDx=0;entryDy=0;" edge="1" parent="1" source="3aSIPS98a_9pSbhr0AX8-25" target="3aSIPS98a_9pSbhr0AX8-36">
          <mxGeometry relative="1" as="geometry" />
        </mxCell>
        <mxCell id="3aSIPS98a_9pSbhr0AX8-41" style="edgeStyle=orthogonalEdgeStyle;rounded=0;orthogonalLoop=1;jettySize=auto;html=1;" edge="1" parent="1" source="3aSIPS98a_9pSbhr0AX8-25" target="3aSIPS98a_9pSbhr0AX8-39">
          <mxGeometry relative="1" as="geometry" />
        </mxCell>
        <mxCell id="3aSIPS98a_9pSbhr0AX8-42" style="edgeStyle=orthogonalEdgeStyle;rounded=0;orthogonalLoop=1;jettySize=auto;html=1;entryX=0.5;entryY=1;entryDx=0;entryDy=0;" edge="1" parent="1" source="3aSIPS98a_9pSbhr0AX8-25" target="3aSIPS98a_9pSbhr0AX8-38">
          <mxGeometry relative="1" as="geometry" />
        </mxCell>
        <mxCell id="3aSIPS98a_9pSbhr0AX8-44" value="" style="edgeStyle=orthogonalEdgeStyle;rounded=0;orthogonalLoop=1;jettySize=auto;html=1;" edge="1" parent="1" source="3aSIPS98a_9pSbhr0AX8-25" target="3aSIPS98a_9pSbhr0AX8-43">
          <mxGeometry relative="1" as="geometry" />
        </mxCell>
        <mxCell id="3aSIPS98a_9pSbhr0AX8-25" value="Armada" style="rounded=0;whiteSpace=wrap;html=1;" vertex="1" parent="1">
          <mxGeometry x="429.99870967741936" y="147.33333333333334" width="85.16129032258065" height="47.05882352941176" as="geometry" />
        </mxCell>
        <mxCell id="3aSIPS98a_9pSbhr0AX8-26" value="&lt;span style=&quot;font-size: 9px;&quot;&gt;Nomor_Plat&lt;/span&gt;" style="ellipse;whiteSpace=wrap;html=1;" vertex="1" parent="1">
          <mxGeometry x="570" y="106.27450980392157" width="85.16129032258065" height="62.74509803921569" as="geometry" />
        </mxCell>
        <mxCell id="3aSIPS98a_9pSbhr0AX8-27" value="&lt;font style=&quot;font-size: 9px;&quot;&gt;Tipe Armada&lt;/font&gt;" style="ellipse;whiteSpace=wrap;html=1;" vertex="1" parent="1">
          <mxGeometry x="570" y="192.54901960784315" width="85.16129032258065" height="62.74509803921569" as="geometry" />
        </mxCell>
        <mxCell id="3aSIPS98a_9pSbhr0AX8-28" value="&lt;font style=&quot;font-size: 9px;&quot;&gt;Kapasitas&lt;/font&gt;" style="ellipse;whiteSpace=wrap;html=1;" vertex="1" parent="1">
          <mxGeometry x="570" y="270.98039215686276" width="85.16129032258065" height="62.74509803921569" as="geometry" />
        </mxCell>
        <mxCell id="3aSIPS98a_9pSbhr0AX8-29" value="&lt;font style=&quot;font-size: 9px;&quot;&gt;ID_Armada&lt;/font&gt;" style="ellipse;whiteSpace=wrap;html=1;fillColor=#FF99FF;" vertex="1" parent="1">
          <mxGeometry x="570" y="20" width="85.16129032258065" height="62.74509803921569" as="geometry" />
        </mxCell>
        <mxCell id="3aSIPS98a_9pSbhr0AX8-36" value="&lt;font style=&quot;font-size: 9px;&quot;&gt;ID_Penumpang&lt;/font&gt;" style="ellipse;whiteSpace=wrap;html=1;fillColor=#33FF00;" vertex="1" parent="1">
          <mxGeometry x="442" y="43.53039215686276" width="85.16129032258065" height="62.74509803921569" as="geometry" />
        </mxCell>
        <mxCell id="3aSIPS98a_9pSbhr0AX8-7" style="edgeStyle=orthogonalEdgeStyle;rounded=0;orthogonalLoop=1;jettySize=auto;html=1;" edge="1" parent="1" source="3aSIPS98a_9pSbhr0AX8-4" target="3aSIPS98a_9pSbhr0AX8-5">
          <mxGeometry relative="1" as="geometry" />
        </mxCell>
        <mxCell id="3aSIPS98a_9pSbhr0AX8-8" style="edgeStyle=orthogonalEdgeStyle;rounded=0;orthogonalLoop=1;jettySize=auto;html=1;entryX=1;entryY=0.5;entryDx=0;entryDy=0;" edge="1" parent="1" source="3aSIPS98a_9pSbhr0AX8-4" target="3aSIPS98a_9pSbhr0AX8-6">
          <mxGeometry relative="1" as="geometry" />
        </mxCell>
        <mxCell id="3aSIPS98a_9pSbhr0AX8-13" style="edgeStyle=orthogonalEdgeStyle;rounded=0;orthogonalLoop=1;jettySize=auto;html=1;entryX=1;entryY=0.5;entryDx=0;entryDy=0;" edge="1" parent="1" source="3aSIPS98a_9pSbhr0AX8-4" target="3aSIPS98a_9pSbhr0AX8-9">
          <mxGeometry relative="1" as="geometry" />
        </mxCell>
        <mxCell id="3aSIPS98a_9pSbhr0AX8-14" style="edgeStyle=orthogonalEdgeStyle;rounded=0;orthogonalLoop=1;jettySize=auto;html=1;entryX=0.5;entryY=0;entryDx=0;entryDy=0;" edge="1" parent="1" source="3aSIPS98a_9pSbhr0AX8-4" target="3aSIPS98a_9pSbhr0AX8-12">
          <mxGeometry relative="1" as="geometry" />
        </mxCell>
        <mxCell id="3aSIPS98a_9pSbhr0AX8-15" style="edgeStyle=orthogonalEdgeStyle;rounded=0;orthogonalLoop=1;jettySize=auto;html=1;entryX=0.5;entryY=1;entryDx=0;entryDy=0;" edge="1" parent="1" source="3aSIPS98a_9pSbhr0AX8-4" target="3aSIPS98a_9pSbhr0AX8-10">
          <mxGeometry relative="1" as="geometry" />
        </mxCell>
        <mxCell id="3aSIPS98a_9pSbhr0AX8-45" value="" style="edgeStyle=orthogonalEdgeStyle;rounded=0;orthogonalLoop=1;jettySize=auto;html=1;" edge="1" parent="1" source="3aSIPS98a_9pSbhr0AX8-4" target="3aSIPS98a_9pSbhr0AX8-43">
          <mxGeometry relative="1" as="geometry" />
        </mxCell>
        <mxCell id="3aSIPS98a_9pSbhr0AX8-4" value="penumpang" style="rounded=0;whiteSpace=wrap;html=1;" vertex="1" parent="1">
          <mxGeometry x="154.83870967741936" y="147.33333333333334" width="85.16129032258065" height="47.05882352941176" as="geometry" />
        </mxCell>
        <mxCell id="3aSIPS98a_9pSbhr0AX8-5" value="&lt;font style=&quot;font-size: 9px;&quot;&gt;Jenis_Kelamin&lt;/font&gt;" style="ellipse;whiteSpace=wrap;html=1;" vertex="1" parent="1">
          <mxGeometry x="20" y="100.27450980392157" width="85.16129032258065" height="62.74509803921569" as="geometry" />
        </mxCell>
        <mxCell id="3aSIPS98a_9pSbhr0AX8-6" value="&lt;font style=&quot;font-size: 9px;&quot;&gt;Nama_Penumpang&lt;/font&gt;" style="ellipse;whiteSpace=wrap;html=1;" vertex="1" parent="1">
          <mxGeometry x="20" y="186.54901960784315" width="85.16129032258065" height="62.74509803921569" as="geometry" />
        </mxCell>
        <mxCell id="3aSIPS98a_9pSbhr0AX8-9" value="&lt;font style=&quot;font-size: 9px;&quot;&gt;Umur&lt;/font&gt;" style="ellipse;whiteSpace=wrap;html=1;" vertex="1" parent="1">
          <mxGeometry x="20" y="264.98039215686276" width="85.16129032258065" height="62.74509803921569" as="geometry" />
        </mxCell>
        <mxCell id="3aSIPS98a_9pSbhr0AX8-10" value="&lt;font style=&quot;font-size: 9px;&quot;&gt;ID_Penumpang&lt;/font&gt;" style="ellipse;whiteSpace=wrap;html=1;fillColor=#FF99FF;" vertex="1" parent="1">
          <mxGeometry x="154.84" y="43.53" width="85.16129032258065" height="62.74509803921569" as="geometry" />
        </mxCell>
        <mxCell id="3aSIPS98a_9pSbhr0AX8-12" value="&lt;font style=&quot;font-size: 9px;&quot;&gt;ID_Transaksi&lt;/font&gt;" style="ellipse;whiteSpace=wrap;html=1;fillColor=#33FF00;" vertex="1" parent="1">
          <mxGeometry x="154.84" y="240.0049019607843" width="85.16129032258065" height="62.74509803921569" as="geometry" />
        </mxCell>
        <mxCell id="3aSIPS98a_9pSbhr0AX8-38" value="&lt;font style=&quot;font-size: 9px;&quot;&gt;ID_Rute&lt;/font&gt;" style="ellipse;whiteSpace=wrap;html=1;fillColor=#33FF00;" vertex="1" parent="1">
          <mxGeometry x="350" y="43.530392156862746" width="85.16129032258065" height="62.74509803921569" as="geometry" />
        </mxCell>
        <mxCell id="3aSIPS98a_9pSbhr0AX8-39" value="&lt;font style=&quot;font-size: 9px;&quot;&gt;ID_Shelter&lt;/font&gt;" style="ellipse;whiteSpace=wrap;html=1;fillColor=#33FF00;" vertex="1" parent="1">
          <mxGeometry x="430" y="264.98039215686276" width="85.16129032258065" height="62.74509803921569" as="geometry" />
        </mxCell>
        <mxCell id="3aSIPS98a_9pSbhr0AX8-43" value="naik" style="rhombus;whiteSpace=wrap;html=1;" vertex="1" parent="1">
          <mxGeometry x="270" y="150.86" width="130" height="40" as="geometry" />
        </mxCell>
      </root>
    </mxGraphModel>
  </diagram>
</mxfile>
